<svg version="1.0" xmlns="http://www.w3.org/2000/svg" width="800.000000" height="800.000000" viewBox="0 0 800.000000 800.000000" preserveAspectRatio="xMidYMid meet">
  <metadata>
    <rdf:RDF xmlns:rdf="http://www.w3.org/1999/02/22-rdf-syntax-ns#" xmlns:rdfs="http://www.w3.org/2000/01/rdf-schema#" xmlns:dc="http://purl.org/dc/elements/1.1/">
      <rdf:Description dc:format="image/svg+xml" dc:Label="1" dc:ContentProducer="001191330110MACRLGPT8B00000" dc:ProduceID="450725971" dc:ReservedCode1="V8qso4oQvw7ocELjNjp0sssArYt3eJ0F9hpRUYHyHxo=" dc:ContentPropagator="001191330110MACRLGPT8B00000" dc:PropagateID="450725971" dc:ReservedCode2="V8qso4oQvw7ocELjNjp0sssArYt3eJ0F9hpRUYHyHxo="/>
    </rdf:RDF>
  </metadata>
  <g transform="translate(0.000000,800.000000) scale(0.100000,-0.100000)" fill="currentColor" stroke="none">
    <path d="M2299 5911 c-76 -24 -142 -85 -169 -158 -20 -53 -20 -80 -20 -1751 0 -1637 1 -1699 19 -1749 22 -61 36 -82 76 -115 74 -62 -56 -58 1793 -58 1262 0 1695 3 1724 12 60 18 123 79 147 144 21 54 21 63 21 1758 0 1849 3 1756 -54 1831 -15 19 -48 47 -74 62 l-47 28 -1695 2 c-932 1 -1707 -2 -1721 -6z m3392 -190 l29 -29 0 -1687 c0 -1799 2 -1731 -45 -1749 -30 -11 -3325 -7 -3346 4 -52 28 -49 -63 -49 1742 1 1369 3 1677 14 1697 29 53 -62 50 1714 51 l1654 0 29 -29z"/>
    <path d="M2520 4000 l0 -1530 1490 0 1490 0 0 1530 0 1530 -1490 0 -1490 0 0 -1530z m2653 1373 c66 -22 139 -90 167 -155 l23 -53 -2 -1173 -2 -1174 -23 -47 c-31 -60 -79 -108 -136 -135 -45 -21 -47 -21 -1174 -24 -1269 -3 -1188 -7 -1274 72 -25 22 -56 64 -68 91 l-24 50 0 1166 c0 863 3 1175 12 1200 30 88 91 149 181 181 49 16 121 17 1162 17 990 0 1115 -2 1158 -16z"/>
    <path d="M4028 5098 l-3 -63 -462 -3 -463 -2 0 -85 0 -85 459 0 459 0 4 -147 c4 -125 8 -154 25 -188 41 -78 102 -105 298 -129 148 -18 372 -36 458 -36 48 0 62 4 82 25 31 30 33 83 6 116 -17 22 -30 24 -204 36 -201 13 -413 38 -453 53 -36 14 -45 50 -42 164 l3 101 380 5 380 5 3 83 3 82 -381 0 -380 0 0 49 c0 80 -2 81 -91 81 l-78 0 -3 -62z"/>
    <path d="M3624 4719 c-70 -45 -221 -115 -349 -161 -60 -21 -115 -44 -121 -49 -22 -18 -25 -59 -9 -93 20 -41 61 -61 107 -51 107 24 474 199 509 243 28 36 24 78 -10 113 -38 37 -65 37 -127 -2z"/>
    <path d="M2880 4035 l0 -85 1130 0 1130 0 0 85 0 85 -1130 0 -1130 0 0 -85z"/>
    <path d="M3180 3335 l0 -415 85 0 85 0 0 150 0 150 180 0 180 0 0 -190 0 -190 85 0 85 0 0 190 0 190 175 0 175 0 0 -190 0 -190 338 2 337 3 0 450 0 450 -862 3 -863 2 0 -415z m1558 -37 l-3 -283 -170 0 -170 0 -3 188 -2 187 -520 0 -520 0 0 95 0 95 695 0 695 0 -2 -282z"/>
  </g>
</svg>