<svg version="1.0" xmlns="http://www.w3.org/2000/svg" width="800.000000" height="800.000000" viewBox="0 0 800.000000 800.000000" preserveAspectRatio="xMidYMid meet">
  <metadata>
    <rdf:RDF xmlns:rdf="http://www.w3.org/1999/02/22-rdf-syntax-ns#" xmlns:rdfs="http://www.w3.org/2000/01/rdf-schema#" xmlns:dc="http://purl.org/dc/elements/1.1/">
      <rdf:Description dc:format="image/svg+xml" dc:Label="1" dc:ContentProducer="001191330110MACRLGPT8B00000" dc:ProduceID="450726136" dc:ReservedCode1="alEjwAFalfjm2elOD2QS1VL75twviyUDVNfKusydwKk=" dc:ContentPropagator="001191330110MACRLGPT8B00000" dc:PropagateID="450726136" dc:ReservedCode2="alEjwAFalfjm2elOD2QS1VL75twviyUDVNfKusydwKk="/>
    </rdf:RDF>
  </metadata>
  <g transform="translate(-90.185012,884.789411) scale(0.123666,-0.123666)" fill="currentColor" stroke="none">
    <path d="M2467 5606 c-57 -21 -103 -61 -128 -113 l-24 -48 -7 -700 c-3 -385 -8 -1069 -10 -1521 l-3 -820 30 -50 c22 -36 44 -56 81 -75 51 -26 58 -26 305 -33 140 -3 802 -11 1471 -17 1114 -10 1221 -10 1265 5 56 19 114 73 137 126 17 41 20 210 36 1575 17 1508 17 1495 -4 1535 -26 49 -65 88 -110 112 -39 20 -64 20 -1375 29 -1714 10 -1619 11 -1664 -5z m2977 -189 c19 -9 19 -24 13 -521 -4 -281 -12 -950 -18 -1486 -10 -844 -14 -977 -27 -992 -19 -22 -88 -23 -1717 -7 -1004 10 -1194 14 -1213 26 l-23 14 6 397 c3 218 10 885 16 1481 7 773 13 1089 21 1098 9 12 250 13 1467 7 923 -4 1463 -10 1475 -17z"/>
  </g>
</svg>