<svg version="1.0" xmlns="http://www.w3.org/2000/svg" width="800.000000" height="800.000000" viewBox="0 0 800.000000 800.000000" preserveAspectRatio="xMidYMid meet">
  <metadata>
    <rdf:RDF xmlns:rdf="http://www.w3.org/1999/02/22-rdf-syntax-ns#" xmlns:rdfs="http://www.w3.org/2000/01/rdf-schema#" xmlns:dc="http://purl.org/dc/elements/1.1/">
      <rdf:Description dc:format="image/svg+xml" dc:Label="1" dc:ContentProducer="001191330110MACRLGPT8B00000" dc:ProduceID="450729703" dc:ReservedCode1="aBbyktItiyecB58Yg5ITqcvoXDQIPcY5CUuR3h4jyfs=" dc:ContentPropagator="001191330110MACRLGPT8B00000" dc:PropagateID="450729703" dc:ReservedCode2="aBbyktItiyecB58Yg5ITqcvoXDQIPcY5CUuR3h4jyfs="/>
    </rdf:RDF>
  </metadata>
  <g transform="translate(139.397248,631.423662) scale(0.061321,-0.061321)" fill="#000000" stroke="none">
    <path d="M1384 7181 c-75 -34 -134 -137 -118 -209 21 -96 79 -190 274 -447 77 -100 140 -187 142 -193 2 -5 -31 -34 -72 -63 -100 -71 -225 -197 -287 -289 -160 -239 -223 -514 -178 -775 l15 -87 -31 -36 c-89 -101 -90 -232 -3 -319 26 -26 27 -28 15 -87 -6 -34 -16 -119 -23 -191 -10 -114 -9 -145 6 -245 30 -194 30 -202 6 -274 -15 -47 -30 -72 -52 -88 -79 -58 -136 -123 -148 -168 -12 -45 -7 -237 31 -1045 5 -121 18 -436 29 -700 20 -507 23 -532 75 -635 33 -64 94 -130 156 -167 30 -17 137 -59 239 -92 345 -112 2134 -663 2249 -692 124 -32 252 -38 339 -18 50 12 297 81 373 104 53 17 266 78 619 180 140 41 311 90 380 110 418 122 920 265 927 265 9 0 37 -86 138 -411 48 -159 84 -199 175 -199 87 0 161 67 162 146 0 22 -25 118 -56 216 -85 268 -144 480 -156 552 -16 101 -125 1514 -117 1522 6 6 94 -155 169 -308 149 -304 276 -722 343 -1130 21 -129 43 -210 126 -465 55 -169 111 -342 125 -383 35 -109 79 -150 161 -150 48 0 99 26 129 66 49 64 47 75 -89 494 -77 236 -130 416 -137 465 -55 380 -203 887 -354 1210 l-44 94 -4 504 -3 503 -30 59 c-25 49 -46 71 -120 127 -106 81 -213 137 -310 163 -39 10 -71 19 -72 20 -2 1 -7 36 -13 77 l-11 76 39 61 c27 40 50 98 73 175 l33 116 92 85 c131 121 163 192 133 300 -8 28 -32 60 -83 110 -57 58 -91 81 -176 123 -115 56 -237 94 -362 113 -74 12 -82 15 -107 48 -54 72 -209 225 -290 287 -47 35 -139 91 -204 125 l-120 62 6 176 c7 198 20 255 80 364 35 62 37 64 92 76 175 39 193 251 28 320 -27 11 -55 10 -185 -8 -84 -12 -165 -24 -179 -27 -25 -5 -28 -1 -44 43 -57 155 -105 219 -207 273 -58 31 -71 34 -193 41 -71 4 -150 12 -175 18 -25 5 -154 15 -285 21 -132 5 -343 15 -468 21 -326 14 -480 -6 -649 -85 -42 -20 -88 -36 -101 -36 -14 0 -56 12 -93 26 -132 50 -277 50 -439 -1 -112 -35 -137 -33 -236 19 -156 81 -247 94 -401 54 l-87 -22 -168 27 c-196 32 -243 33 -299 8z m835 -365 c111 -56 155 -68 256 -67 60 0 101 6 160 26 128 43 185 44 306 5 91 -29 111 -32 193 -28 81 4 101 8 183 46 114 53 211 72 366 72 180 -1 876 -38 922 -49 22 -6 83 -11 136 -11 105 0 114 -4 125 -57 l6 -29 -149 -12 c-81 -7 -267 -21 -413 -32 -887 -66 -1460 -112 -1565 -125 -66 -9 -183 -24 -260 -35 -77 -10 -211 -28 -297 -40 -86 -11 -163 -23 -171 -26 -13 -5 -65 58 -291 350 l-30 39 29 -6 c17 -4 64 -9 105 -13 65 -5 85 -2 150 20 94 32 125 29 239 -28z m2858 -622 c-3 -125 -8 -228 -9 -230 -2 -2 -40 4 -83 12 -130 24 -400 28 -685 10 -140 -9 -538 -34 -885 -56 -346 -22 -645 -43 -663 -46 -39 -6 -95 -53 -112 -94 -17 -40 -8 -125 17 -158 10 -15 39 -37 64 -50 l45 -22 380 25 c208 14 430 28 493 32 l114 6 -8 -245 c-8 -274 -5 -295 49 -347 79 -77 208 -49 252 54 8 21 15 117 20 293 l7 262 31 5 c17 2 161 12 320 21 234 13 311 14 400 4 504 -52 858 -277 1031 -653 73 -159 150 -468 185 -740 25 -195 25 -214 0 -268 -12 -28 -20 -66 -20 -104 l0 -60 -803 -133 c-441 -74 -903 -151 -1027 -172 -307 -53 -351 -53 -798 10 -196 28 -431 61 -522 75 -91 13 -298 43 -460 65 -317 44 -974 141 -977 144 -1 1 4 24 12 51 28 90 29 170 5 330 -15 105 -20 173 -16 227 8 112 43 270 73 336 22 47 27 71 27 142 1 73 -5 102 -38 200 -70 208 -59 395 33 578 59 118 139 213 244 290 134 99 250 143 441 167 71 8 223 29 337 45 278 40 405 52 1069 100 885 63 1410 106 1419 116 2 2 13 4 24 4 20 0 20 -5 14 -226z m1229 -1225 c30 -12 54 -24 52 -29 -2 -4 -25 -26 -51 -49 -48 -41 -67 -45 -67 -13 -1 9 -9 41 -19 70 l-18 54 24 -7 c13 -3 49 -15 79 -26z m294 -1515 c0 -88 -4 -153 -9 -150 -5 3 -17 37 -26 76 -19 79 -56 137 -109 169 -41 26 -39 41 7 42 18 1 43 5 57 9 14 4 37 8 53 9 l27 1 0 -156z m-4905 11 c1548 -223 1991 -285 2020 -285 l33 0 6 -202 c6 -218 26 -1741 27 -2078 0 -193 -1 -205 -18 -202 -18 4 -1406 430 -1568 482 -49 16 -209 65 -355 110 -146 45 -306 95 -356 111 -95 31 -133 59 -153 112 -6 16 -16 153 -21 305 -22 598 -54 1369 -66 1596 l-7 119 34 -6 c19 -4 210 -31 424 -62z m4385 23 c0 -18 -7 -58 -15 -88 -32 -121 -13 -214 66 -325 l32 -44 13 -213 c17 -262 80 -1114 98 -1315 7 -81 10 -151 7 -154 -3 -4 -78 -28 -166 -53 -88 -26 -205 -60 -260 -76 -100 -29 -551 -160 -845 -245 -85 -25 -324 -94 -530 -154 -206 -60 -376 -109 -376 -108 -3 4 -34 2470 -31 2473 2 2 246 44 543 94 296 50 733 124 969 164 237 40 445 74 463 75 30 1 32 -1 32 -31z"/>
  </g>
</svg>